<mxfile host="app.diagrams.net" agent="Mozilla/5.0 (Windows NT 10.0; Win64; x64) AppleWebKit/537.36 (KHTML, like Gecko) Chrome/126.0.0.0 Safari/537.36" version="24.7.6">
  <diagram id="wFE0QG_FPsp0jaGvCLVb" name="Page-1">
    <mxGraphModel dx="1434" dy="746" grid="1" gridSize="10" guides="1" tooltips="1" connect="1" arrows="1" fold="1" page="1" pageScale="1" pageWidth="850" pageHeight="1100" math="0" shadow="0">
      <root>
        <mxCell id="0" />
        <mxCell id="1" parent="0" />
        <mxCell id="pp7dFvi1Cq4HVV2FVrHm-5" style="edgeStyle=orthogonalEdgeStyle;rounded=0;orthogonalLoop=1;jettySize=auto;html=1;" parent="1" source="pp7dFvi1Cq4HVV2FVrHm-1" target="pp7dFvi1Cq4HVV2FVrHm-2" edge="1">
          <mxGeometry relative="1" as="geometry" />
        </mxCell>
        <mxCell id="pp7dFvi1Cq4HVV2FVrHm-7" style="edgeStyle=orthogonalEdgeStyle;rounded=0;orthogonalLoop=1;jettySize=auto;html=1;" parent="1" source="pp7dFvi1Cq4HVV2FVrHm-1" target="pp7dFvi1Cq4HVV2FVrHm-6" edge="1">
          <mxGeometry relative="1" as="geometry" />
        </mxCell>
        <mxCell id="pp7dFvi1Cq4HVV2FVrHm-1" value="&lt;font style=&quot;font-size: 18px;&quot;&gt;&lt;b&gt;Graylog Teachers&lt;/b&gt;&lt;/font&gt;&lt;div&gt;&lt;font size=&quot;3&quot;&gt;&lt;b&gt;Nov 2023 Data&lt;/b&gt;&lt;/font&gt;&lt;/div&gt;&lt;div&gt;1.18 mil records&lt;/div&gt;&lt;div&gt;&lt;br&gt;&lt;/div&gt;&lt;div&gt;Information:&lt;br&gt;- User UUID&lt;/div&gt;&lt;div&gt;- Session UUID&lt;/div&gt;&lt;div&gt;- URL UUID&lt;/div&gt;" style="shape=process;whiteSpace=wrap;html=1;backgroundOutline=1;" parent="1" vertex="1">
          <mxGeometry x="30" y="30" width="210" height="150" as="geometry" />
        </mxCell>
        <mxCell id="pp7dFvi1Cq4HVV2FVrHm-2" value="URL UUIDs&amp;nbsp;&lt;div&gt;&lt;font color=&quot;#6666ff&quot;&gt;(88.5k unique)&lt;/font&gt;&lt;/div&gt;" style="ellipse;whiteSpace=wrap;html=1;" parent="1" vertex="1">
          <mxGeometry x="315" y="65" width="120" height="80" as="geometry" />
        </mxCell>
        <mxCell id="pp7dFvi1Cq4HVV2FVrHm-6" value="Teacher UUIDs&amp;nbsp;&lt;div&gt;&lt;font color=&quot;#6666ff&quot;&gt;(17.5k unique)&lt;/font&gt;&lt;/div&gt;" style="ellipse;whiteSpace=wrap;html=1;" parent="1" vertex="1">
          <mxGeometry x="75" y="310" width="120" height="80" as="geometry" />
        </mxCell>
        <mxCell id="5XDLLNpMgbm_Sm2Lj41F-2" style="edgeStyle=orthogonalEdgeStyle;rounded=0;orthogonalLoop=1;jettySize=auto;html=1;entryX=1;entryY=0.5;entryDx=0;entryDy=0;" parent="1" source="pp7dFvi1Cq4HVV2FVrHm-11" target="pp7dFvi1Cq4HVV2FVrHm-13" edge="1">
          <mxGeometry relative="1" as="geometry">
            <Array as="points">
              <mxPoint x="830" y="70" />
              <mxPoint x="830" y="430" />
            </Array>
          </mxGeometry>
        </mxCell>
        <mxCell id="pp7dFvi1Cq4HVV2FVrHm-11" value="Assignment&lt;div&gt;&lt;div&gt;- UUID&lt;/div&gt;&lt;/div&gt;&lt;div&gt;- Original UUID&lt;/div&gt;" style="shape=process;whiteSpace=wrap;html=1;backgroundOutline=1;" parent="1" vertex="1">
          <mxGeometry x="565" y="40" width="120" height="60" as="geometry" />
        </mxCell>
        <mxCell id="5XDLLNpMgbm_Sm2Lj41F-5" style="edgeStyle=orthogonalEdgeStyle;rounded=0;orthogonalLoop=1;jettySize=auto;html=1;entryX=1;entryY=0.5;entryDx=0;entryDy=0;" parent="1" source="pp7dFvi1Cq4HVV2FVrHm-12" target="pp7dFvi1Cq4HVV2FVrHm-13" edge="1">
          <mxGeometry relative="1" as="geometry">
            <Array as="points">
              <mxPoint x="720" y="260" />
              <mxPoint x="720" y="430" />
            </Array>
          </mxGeometry>
        </mxCell>
        <mxCell id="pp7dFvi1Cq4HVV2FVrHm-12" value="Lesson&lt;div&gt;- UUID&lt;/div&gt;&lt;div&gt;- Original UUID&lt;/div&gt;" style="shape=process;whiteSpace=wrap;html=1;backgroundOutline=1;" parent="1" vertex="1">
          <mxGeometry x="565" y="230" width="120" height="60" as="geometry" />
        </mxCell>
        <mxCell id="pp7dFvi1Cq4HVV2FVrHm-13" value="MOELib&amp;nbsp;&lt;div&gt;- UUID&lt;/div&gt;&lt;div&gt;- Original UUID&lt;/div&gt;" style="shape=process;whiteSpace=wrap;html=1;backgroundOutline=1;" parent="1" vertex="1">
          <mxGeometry x="580" y="400" width="120" height="60" as="geometry" />
        </mxCell>
        <mxCell id="pp7dFvi1Cq4HVV2FVrHm-14" value="CG" style="shape=process;whiteSpace=wrap;html=1;backgroundOutline=1;" parent="1" vertex="1">
          <mxGeometry x="460" y="510" width="120" height="60" as="geometry" />
        </mxCell>
        <mxCell id="pp7dFvi1Cq4HVV2FVrHm-15" value="" style="endArrow=classic;html=1;rounded=0;entryX=0;entryY=0.5;entryDx=0;entryDy=0;" parent="1" source="pp7dFvi1Cq4HVV2FVrHm-2" target="pp7dFvi1Cq4HVV2FVrHm-11" edge="1">
          <mxGeometry width="50" height="50" relative="1" as="geometry">
            <mxPoint x="195" y="350" as="sourcePoint" />
            <mxPoint x="245" y="300" as="targetPoint" />
          </mxGeometry>
        </mxCell>
        <mxCell id="pp7dFvi1Cq4HVV2FVrHm-16" value="" style="endArrow=classic;html=1;rounded=0;entryX=0;entryY=0.5;entryDx=0;entryDy=0;exitX=1;exitY=0.65;exitDx=0;exitDy=0;exitPerimeter=0;" parent="1" source="pp7dFvi1Cq4HVV2FVrHm-2" target="pp7dFvi1Cq4HVV2FVrHm-12" edge="1">
          <mxGeometry width="50" height="50" relative="1" as="geometry">
            <mxPoint x="195" y="350" as="sourcePoint" />
            <mxPoint x="245" y="300" as="targetPoint" />
          </mxGeometry>
        </mxCell>
        <mxCell id="pp7dFvi1Cq4HVV2FVrHm-17" value="" style="endArrow=classic;html=1;rounded=0;entryX=0;entryY=0;entryDx=0;entryDy=0;exitX=1;exitY=1;exitDx=0;exitDy=0;" parent="1" source="pp7dFvi1Cq4HVV2FVrHm-2" target="pp7dFvi1Cq4HVV2FVrHm-13" edge="1">
          <mxGeometry width="50" height="50" relative="1" as="geometry">
            <mxPoint x="195" y="350" as="sourcePoint" />
            <mxPoint x="245" y="300" as="targetPoint" />
          </mxGeometry>
        </mxCell>
        <mxCell id="pp7dFvi1Cq4HVV2FVrHm-18" value="" style="endArrow=classic;html=1;rounded=0;entryX=0.5;entryY=0;entryDx=0;entryDy=0;exitX=0.708;exitY=0.95;exitDx=0;exitDy=0;exitPerimeter=0;" parent="1" source="pp7dFvi1Cq4HVV2FVrHm-2" target="pp7dFvi1Cq4HVV2FVrHm-14" edge="1">
          <mxGeometry width="50" height="50" relative="1" as="geometry">
            <mxPoint x="195" y="350" as="sourcePoint" />
            <mxPoint x="245" y="300" as="targetPoint" />
          </mxGeometry>
        </mxCell>
        <mxCell id="pp7dFvi1Cq4HVV2FVrHm-21" value="Not in any list" style="rounded=0;whiteSpace=wrap;html=1;" parent="1" vertex="1">
          <mxGeometry x="275" y="300" width="120" height="60" as="geometry" />
        </mxCell>
        <mxCell id="pp7dFvi1Cq4HVV2FVrHm-22" value="" style="endArrow=classic;html=1;rounded=0;entryX=0.5;entryY=0;entryDx=0;entryDy=0;exitX=0.317;exitY=0.963;exitDx=0;exitDy=0;exitPerimeter=0;" parent="1" source="pp7dFvi1Cq4HVV2FVrHm-2" target="pp7dFvi1Cq4HVV2FVrHm-21" edge="1">
          <mxGeometry width="50" height="50" relative="1" as="geometry">
            <mxPoint x="195" y="350" as="sourcePoint" />
            <mxPoint x="245" y="300" as="targetPoint" />
          </mxGeometry>
        </mxCell>
        <mxCell id="pp7dFvi1Cq4HVV2FVrHm-23" value="&lt;div&gt;&lt;span style=&quot;background-color: initial;&quot;&gt;fds&lt;/span&gt;&lt;/div&gt;&lt;div&gt;&lt;span style=&quot;caret-color: rgb(102, 102, 255); background-color: initial;&quot;&gt;&lt;font color=&quot;#6666ff&quot;&gt;31.6k unique (35.7%)&lt;/font&gt;&lt;/span&gt;&lt;/div&gt;&lt;div&gt;&lt;span style=&quot;color: rgb(255, 102, 102); caret-color: rgb(102, 102, 255); background-color: initial;&quot;&gt;- UUIDs coded as &quot;assignment&quot;&lt;/span&gt;&lt;br&gt;&lt;/div&gt;" style="text;html=1;align=center;verticalAlign=middle;whiteSpace=wrap;rounded=0;" parent="1" vertex="1">
          <mxGeometry x="385" y="20" width="175" height="30" as="geometry" />
        </mxCell>
        <mxCell id="pp7dFvi1Cq4HVV2FVrHm-24" value="&lt;div&gt;&lt;span style=&quot;background-color: initial; color: rgb(102, 102, 255);&quot;&gt;33.9k unique (28.7%)&lt;/span&gt;&lt;br&gt;&lt;/div&gt;&lt;div&gt;&lt;span style=&quot;caret-color: rgb(102, 102, 255);&quot;&gt;&lt;font color=&quot;#ff6666&quot;&gt;- 3.9k unique UUIDs are coded as &#39;als-session&lt;/font&gt;&lt;/span&gt;&lt;/div&gt;&lt;div&gt;&lt;font color=&quot;#ff6666&quot;&gt;&lt;span style=&quot;caret-color: rgb(102, 102, 255);&quot;&gt;- 350 UUIDs coded as &quot;class-group&quot;&lt;/span&gt;&lt;span style=&quot;caret-color: rgb(102, 102, 255);&quot;&gt;&#39;&lt;/span&gt;&lt;/font&gt;&lt;/div&gt;&lt;div&gt;&lt;span style=&quot;caret-color: rgb(102, 102, 255);&quot;&gt;&lt;font color=&quot;#ff6666&quot;&gt;- 815 UUIDs coded as &quot;personal-lesson&quot;&lt;/font&gt;&lt;/span&gt;&lt;/div&gt;" style="text;html=1;align=center;verticalAlign=middle;whiteSpace=wrap;rounded=0;" parent="1" vertex="1">
          <mxGeometry x="480" y="140" width="265" height="30" as="geometry" />
        </mxCell>
        <mxCell id="pp7dFvi1Cq4HVV2FVrHm-25" value="&lt;div&gt;&lt;span style=&quot;color: rgb(102, 102, 255); background-color: initial;&quot;&gt;7.4k records (8.4%)&lt;/span&gt;&lt;br&gt;&lt;/div&gt;&lt;div&gt;&lt;font color=&quot;#ff6666&quot;&gt;- UUIDs coded as &quot;self-study&quot;&lt;/font&gt;&lt;/div&gt;" style="text;html=1;align=center;verticalAlign=middle;whiteSpace=wrap;rounded=0;" parent="1" vertex="1">
          <mxGeometry x="550" y="330" width="155" height="60" as="geometry" />
        </mxCell>
        <mxCell id="pp7dFvi1Cq4HVV2FVrHm-26" value="&lt;div&gt;&lt;font style=&quot;background-color: initial;&quot; color=&quot;#6666ff&quot;&gt;13.1k unique&amp;nbsp;&lt;/font&gt;&lt;span style=&quot;background-color: initial; color: rgb(102, 102, 255);&quot;&gt;(14.8%)&lt;/span&gt;&lt;br&gt;&lt;/div&gt;&lt;div&gt;&lt;font color=&quot;#ff3333&quot;&gt;- 2.1k unique assignment UUIDs&lt;/font&gt;&lt;/div&gt;&lt;div&gt;&lt;font color=&quot;#ff3333&quot;&gt;&lt;span style=&quot;caret-color: rgb(255, 51, 51);&quot;&gt;- 400 other UUIDs&lt;/span&gt;&lt;/font&gt;&lt;/div&gt;" style="text;html=1;align=center;verticalAlign=middle;whiteSpace=wrap;rounded=0;" parent="1" vertex="1">
          <mxGeometry x="150" y="260" width="180" height="30" as="geometry" />
        </mxCell>
        <mxCell id="pp7dFvi1Cq4HVV2FVrHm-27" value="User/School" style="shape=process;whiteSpace=wrap;html=1;backgroundOutline=1;" parent="1" vertex="1">
          <mxGeometry x="80" y="520" width="120" height="60" as="geometry" />
        </mxCell>
        <mxCell id="pp7dFvi1Cq4HVV2FVrHm-28" value="" style="endArrow=classic;html=1;rounded=0;exitX=0.5;exitY=1;exitDx=0;exitDy=0;" parent="1" source="pp7dFvi1Cq4HVV2FVrHm-6" target="pp7dFvi1Cq4HVV2FVrHm-27" edge="1">
          <mxGeometry width="50" height="50" relative="1" as="geometry">
            <mxPoint x="280" y="320" as="sourcePoint" />
            <mxPoint x="330" y="270" as="targetPoint" />
          </mxGeometry>
        </mxCell>
        <mxCell id="pp7dFvi1Cq4HVV2FVrHm-29" value="&lt;font color=&quot;#6666ff&quot;&gt;17.4k unique (99.5%)&lt;/font&gt;" style="text;html=1;align=center;verticalAlign=middle;whiteSpace=wrap;rounded=0;" parent="1" vertex="1">
          <mxGeometry x="10" y="470" width="130" height="30" as="geometry" />
        </mxCell>
        <mxCell id="pp7dFvi1Cq4HVV2FVrHm-30" value="Not in any list" style="rounded=0;whiteSpace=wrap;html=1;" parent="1" vertex="1">
          <mxGeometry x="265" y="520" width="120" height="60" as="geometry" />
        </mxCell>
        <mxCell id="pp7dFvi1Cq4HVV2FVrHm-31" value="" style="endArrow=classic;html=1;rounded=0;exitX=0.617;exitY=1;exitDx=0;exitDy=0;exitPerimeter=0;entryX=0.5;entryY=0;entryDx=0;entryDy=0;" parent="1" source="pp7dFvi1Cq4HVV2FVrHm-6" target="pp7dFvi1Cq4HVV2FVrHm-30" edge="1">
          <mxGeometry width="50" height="50" relative="1" as="geometry">
            <mxPoint x="280" y="300" as="sourcePoint" />
            <mxPoint x="330" y="250" as="targetPoint" />
          </mxGeometry>
        </mxCell>
        <mxCell id="pp7dFvi1Cq4HVV2FVrHm-32" value="&lt;font color=&quot;#6666ff&quot;&gt;92 unique (0.5%)&lt;/font&gt;" style="text;html=1;align=center;verticalAlign=middle;whiteSpace=wrap;rounded=0;" parent="1" vertex="1">
          <mxGeometry x="185" y="400" width="110" height="30" as="geometry" />
        </mxCell>
        <mxCell id="pp7dFvi1Cq4HVV2FVrHm-34" value="No match" style="text;html=1;align=center;verticalAlign=middle;whiteSpace=wrap;rounded=0;" parent="1" vertex="1">
          <mxGeometry x="495" y="480" width="120" height="30" as="geometry" />
        </mxCell>
        <mxCell id="5XDLLNpMgbm_Sm2Lj41F-3" value="&lt;font color=&quot;#6666ff&quot;&gt;8974 unique MOELib UUIDs map to Assignment Source UUIDs (67%)&lt;/font&gt;" style="text;html=1;align=center;verticalAlign=middle;whiteSpace=wrap;rounded=0;" parent="1" vertex="1">
          <mxGeometry x="680" y="30" width="170" height="30" as="geometry" />
        </mxCell>
        <mxCell id="5XDLLNpMgbm_Sm2Lj41F-6" value="&lt;font color=&quot;#6666ff&quot;&gt;11795 unique MOELib UUIDs map to Lesson Source UUIDs (87.9%)&lt;/font&gt;" style="text;html=1;align=center;verticalAlign=middle;whiteSpace=wrap;rounded=0;" parent="1" vertex="1">
          <mxGeometry x="705" y="240" width="120" height="5" as="geometry" />
        </mxCell>
        <mxCell id="maD6eXA-JH0x8guw8vgV-2" value="&lt;div&gt;26k records (0.3%)&lt;/div&gt;&lt;div&gt;&lt;font color=&quot;#6666ff&quot;&gt;310 unique (3.6%)&lt;/font&gt;&lt;/div&gt;&lt;div&gt;&lt;font color=&quot;#ff3333&quot;&gt;- 2.1k unique assignment UUIDs&lt;/font&gt;&lt;/div&gt;&lt;div&gt;&lt;font color=&quot;#ff3333&quot;&gt;&lt;span style=&quot;caret-color: rgb(255, 51, 51);&quot;&gt;- 400 other UUIDs&lt;/span&gt;&lt;/font&gt;&lt;/div&gt;" style="text;html=1;align=center;verticalAlign=middle;whiteSpace=wrap;rounded=0;" vertex="1" parent="1">
          <mxGeometry x="330" y="400" width="180" height="30" as="geometry" />
        </mxCell>
      </root>
    </mxGraphModel>
  </diagram>
</mxfile>
